<?xml version="1.0" encoding="UTF-8" standalone="no"?>
<!DOCTYPE svg PUBLIC "-//W3C//DTD SVG 1.1//EN"
 "http://www.w3.org/Graphics/SVG/1.1/DTD/svg11.dtd">
<!-- Generated by graphviz version 5.0.0 (20220707.1540)
 -->
<!-- Title: StorageDiagram Pages: 1 -->
<svg width="1873pt" height="654pt"
 viewBox="0.00 0.00 1873.08 653.60" xmlns="http://www.w3.org/2000/svg" xmlns:xlink="http://www.w3.org/1999/xlink">
<g id="graph0" class="graph" transform="scale(1 1) rotate(0) translate(4 649.6)">
<title>StorageDiagram</title>
<polygon fill="white" stroke="transparent" points="-4,4 -4,-649.6 1869.08,-649.6 1869.08,4 -4,4"/>
<!-- 6 -->
<g id="node1" class="node">
<title>6</title>
<polygon fill="#f2f2f2" stroke="black" points="0,-147.1 0,-543.9 652.1,-543.9 652.1,-147.1 0,-147.1"/>
<text text-anchor="middle" x="326.05" y="-527.3" font-family="Courier New" font-size="14.00">GasContract &lt;&lt;Contract&gt;&gt;</text>
<polyline fill="none" stroke="black" points="0,-519.1 652.1,-519.1 "/>
<text text-anchor="middle" x="24.8" y="-502.5" font-family="Courier New" font-size="14.00">slot</text>
<polyline fill="none" stroke="black" points="0,-494.3 49.61,-494.3 "/>
<text text-anchor="middle" x="24.8" y="-477.7" font-family="Courier New" font-size="14.00">0</text>
<polyline fill="none" stroke="black" points="0,-469.5 49.61,-469.5 "/>
<text text-anchor="middle" x="24.8" y="-452.9" font-family="Courier New" font-size="14.00">1</text>
<polyline fill="none" stroke="black" points="0,-444.7 49.61,-444.7 "/>
<text text-anchor="middle" x="24.8" y="-428.1" font-family="Courier New" font-size="14.00">2</text>
<polyline fill="none" stroke="black" points="0,-419.9 49.61,-419.9 "/>
<text text-anchor="middle" x="24.8" y="-403.3" font-family="Courier New" font-size="14.00">3</text>
<polyline fill="none" stroke="black" points="0,-395.1 49.61,-395.1 "/>
<text text-anchor="middle" x="24.8" y="-378.5" font-family="Courier New" font-size="14.00">4</text>
<polyline fill="none" stroke="black" points="0,-370.3 49.61,-370.3 "/>
<text text-anchor="middle" x="24.8" y="-353.7" font-family="Courier New" font-size="14.00">5</text>
<polyline fill="none" stroke="black" points="0,-345.5 49.61,-345.5 "/>
<text text-anchor="middle" x="24.8" y="-328.9" font-family="Courier New" font-size="14.00">6</text>
<polyline fill="none" stroke="black" points="0,-320.7 49.61,-320.7 "/>
<text text-anchor="middle" x="24.8" y="-304.1" font-family="Courier New" font-size="14.00">7</text>
<polyline fill="none" stroke="black" points="0,-295.9 49.61,-295.9 "/>
<text text-anchor="middle" x="24.8" y="-279.3" font-family="Courier New" font-size="14.00">8&#45;12</text>
<polyline fill="none" stroke="black" points="0,-271.1 49.61,-271.1 "/>
<text text-anchor="middle" x="24.8" y="-254.5" font-family="Courier New" font-size="14.00">13</text>
<polyline fill="none" stroke="black" points="0,-246.3 49.61,-246.3 "/>
<text text-anchor="middle" x="24.8" y="-229.7" font-family="Courier New" font-size="14.00">14</text>
<polyline fill="none" stroke="black" points="0,-221.5 49.61,-221.5 "/>
<text text-anchor="middle" x="24.8" y="-204.9" font-family="Courier New" font-size="14.00">15</text>
<polyline fill="none" stroke="black" points="0,-196.7 49.61,-196.7 "/>
<text text-anchor="middle" x="24.8" y="-180.1" font-family="Courier New" font-size="14.00">16</text>
<polyline fill="none" stroke="black" points="0,-171.9 49.61,-171.9 "/>
<text text-anchor="middle" x="24.8" y="-155.3" font-family="Courier New" font-size="14.00">17</text>
<polyline fill="none" stroke="black" points="49.61,-147.1 49.61,-519.1 "/>
<text text-anchor="middle" x="350.85" y="-502.5" font-family="Courier New" font-size="14.00">type: &lt;inherited contract&gt;.variable (bytes)</text>
<polyline fill="none" stroke="black" points="49.61,-494.3 652.1,-494.3 "/>
<text text-anchor="middle" x="128.62" y="-477.7" font-family="Courier New" font-size="14.00">unallocated (8)</text>
<polyline fill="none" stroke="black" points="207.63,-469.5 207.63,-494.3 "/>
<text text-anchor="middle" x="295.54" y="-477.7" font-family="Courier New" font-size="14.00">bytes4: flags (4)</text>
<polyline fill="none" stroke="black" points="383.45,-469.5 383.45,-494.3 "/>
<text text-anchor="middle" x="517.57" y="-477.7" font-family="Courier New" font-size="14.00">address: Ownable._owner (20)</text>
<polyline fill="none" stroke="black" points="49.61,-469.5 652.1,-469.5 "/>
<text text-anchor="middle" x="350.62" y="-452.9" font-family="Courier New" font-size="14.00">uint256: totalSupply (32)</text>
<polyline fill="none" stroke="black" points="49.61,-444.7 652.1,-444.7 "/>
<text text-anchor="middle" x="350.72" y="-428.1" font-family="Courier New" font-size="14.00">uint256: paymentCounter (32)</text>
<polyline fill="none" stroke="black" points="49.61,-419.9 652.1,-419.9 "/>
<text text-anchor="middle" x="350.63" y="-403.3" font-family="Courier New" font-size="14.00">mapping(address=&gt;uint256): balances (32)</text>
<polyline fill="none" stroke="black" points="49.61,-395.1 652.1,-395.1 "/>
<text text-anchor="middle" x="124.82" y="-378.5" font-family="Courier New" font-size="14.00">unallocated (11)</text>
<polyline fill="none" stroke="black" points="200.03,-370.3 200.03,-395.1 "/>
<text text-anchor="middle" x="321.45" y="-378.5" font-family="Courier New" font-size="14.00">address: contractOwner (20)</text>
<polyline fill="none" stroke="black" points="442.86,-370.3 442.86,-395.1 "/>
<text text-anchor="middle" x="547.48" y="-378.5" font-family="Courier New" font-size="14.00">uint8: tradePercent (1)</text>
<polyline fill="none" stroke="black" points="49.61,-370.3 652.1,-370.3 "/>
<text text-anchor="middle" x="350.72" y="-353.7" font-family="Courier New" font-size="14.00">uint256: tradeMode (32)</text>
<polyline fill="none" stroke="black" points="49.61,-345.5 652.1,-345.5 "/>
<text text-anchor="middle" x="350.53" y="-328.9" font-family="Courier New" font-size="14.00">mapping(address=&gt;Payment[]): payments (32)</text>
<polyline fill="none" stroke="black" points="49.61,-320.7 652.1,-320.7 "/>
<text text-anchor="middle" x="350.83" y="-304.1" font-family="Courier New" font-size="14.00">mapping(address=&gt;uint256): whitelist (32)</text>
<polyline fill="none" stroke="black" points="49.61,-295.9 652.1,-295.9 "/>
<text text-anchor="middle" x="350.53" y="-279.3" font-family="Courier New" font-size="14.00">address[5]: administrators (160)</text>
<polyline fill="none" stroke="black" points="49.61,-271.1 652.1,-271.1 "/>
<text text-anchor="middle" x="197.82" y="-254.5" font-family="Courier New" font-size="14.00">unallocated (31)</text>
<polyline fill="none" stroke="black" points="346.03,-246.3 346.03,-271.1 "/>
<text text-anchor="middle" x="498.94" y="-254.5" font-family="Courier New" font-size="14.00">bool: isReady (1)</text>
<polyline fill="none" stroke="black" points="49.61,-246.3 652.1,-246.3 "/>
<text text-anchor="middle" x="350.63" y="-229.7" font-family="Courier New" font-size="14.00">History[]: paymentHistory (32)</text>
<polyline fill="none" stroke="black" points="49.61,-221.5 652.1,-221.5 "/>
<text text-anchor="middle" x="350.42" y="-204.9" font-family="Courier New" font-size="14.00">uint256: wasLastOdd (32)</text>
<polyline fill="none" stroke="black" points="49.61,-196.7 652.1,-196.7 "/>
<text text-anchor="middle" x="350.64" y="-180.1" font-family="Courier New" font-size="14.00">mapping(address=&gt;uint256): isOddWhitelistUser (32)</text>
<polyline fill="none" stroke="black" points="49.61,-171.9 652.1,-171.9 "/>
<text text-anchor="middle" x="350.64" y="-155.3" font-family="Courier New" font-size="14.00">mapping(address=&gt;ImportantStruct): whiteListStruct (32)</text>
</g>
<!-- 1 -->
<g id="node2" class="node">
<title>1</title>
<polygon fill="#f2f2f2" stroke="black" points="739.31,-421.9 739.31,-645.1 1207.38,-645.1 1207.38,-421.9 739.31,-421.9"/>
<text text-anchor="middle" x="973.34" y="-628.5" font-family="Courier New" font-size="14.00">Payment &lt;&lt;Struct&gt;&gt;</text>
<polyline fill="none" stroke="black" points="739.31,-620.3 1207.38,-620.3 "/>
<text text-anchor="middle" x="772.51" y="-603.7" font-family="Courier New" font-size="14.00">offset</text>
<polyline fill="none" stroke="black" points="739.31,-595.5 805.71,-595.5 "/>
<text text-anchor="middle" x="772.51" y="-578.9" font-family="Courier New" font-size="14.00">0</text>
<polyline fill="none" stroke="black" points="739.31,-570.7 805.71,-570.7 "/>
<text text-anchor="middle" x="772.51" y="-554.1" font-family="Courier New" font-size="14.00">1</text>
<polyline fill="none" stroke="black" points="739.31,-545.9 805.71,-545.9 "/>
<text text-anchor="middle" x="772.51" y="-529.3" font-family="Courier New" font-size="14.00">2</text>
<polyline fill="none" stroke="black" points="739.31,-521.1 805.71,-521.1 "/>
<text text-anchor="middle" x="772.51" y="-504.5" font-family="Courier New" font-size="14.00">3</text>
<polyline fill="none" stroke="black" points="739.31,-496.3 805.71,-496.3 "/>
<text text-anchor="middle" x="772.51" y="-479.7" font-family="Courier New" font-size="14.00">4</text>
<polyline fill="none" stroke="black" points="739.31,-471.5 805.71,-471.5 "/>
<text text-anchor="middle" x="772.51" y="-454.9" font-family="Courier New" font-size="14.00">5</text>
<polyline fill="none" stroke="black" points="739.31,-446.7 805.71,-446.7 "/>
<text text-anchor="middle" x="772.51" y="-430.1" font-family="Courier New" font-size="14.00">6</text>
<polyline fill="none" stroke="black" points="805.71,-421.9 805.71,-620.3 "/>
<text text-anchor="middle" x="1006.54" y="-603.7" font-family="Courier New" font-size="14.00">type: variable (bytes)</text>
<polyline fill="none" stroke="black" points="805.71,-595.5 1207.38,-595.5 "/>
<text text-anchor="middle" x="880.93" y="-578.9" font-family="Courier New" font-size="14.00">unallocated (31)</text>
<polyline fill="none" stroke="black" points="956.14,-570.7 956.14,-595.5 "/>
<text text-anchor="middle" x="1081.76" y="-578.9" font-family="Courier New" font-size="14.00">PaymentType: paymentType (1)</text>
<polyline fill="none" stroke="black" points="805.71,-570.7 1207.38,-570.7 "/>
<text text-anchor="middle" x="1006.33" y="-554.1" font-family="Courier New" font-size="14.00">uint256: paymentID (32)</text>
<polyline fill="none" stroke="black" points="805.71,-545.9 1207.38,-545.9 "/>
<text text-anchor="middle" x="893.43" y="-529.3" font-family="Courier New" font-size="14.00">unallocated (31)</text>
<polyline fill="none" stroke="black" points="981.14,-521.1 981.14,-545.9 "/>
<text text-anchor="middle" x="1094.05" y="-529.3" font-family="Courier New" font-size="14.00">bool: adminUpdated (1)</text>
<polyline fill="none" stroke="black" points="805.71,-521.1 1207.38,-521.1 "/>
<text text-anchor="middle" x="1006.43" y="-504.5" font-family="Courier New" font-size="14.00">string: recipientName (32)</text>
<polyline fill="none" stroke="black" points="805.71,-496.3 1207.38,-496.3 "/>
<text text-anchor="middle" x="891.43" y="-479.7" font-family="Courier New" font-size="14.00">unallocated (12)</text>
<polyline fill="none" stroke="black" points="977.14,-471.5 977.14,-496.3 "/>
<text text-anchor="middle" x="1092.25" y="-479.7" font-family="Courier New" font-size="14.00">address: recipient (20)</text>
<polyline fill="none" stroke="black" points="805.71,-471.5 1207.38,-471.5 "/>
<text text-anchor="middle" x="899.43" y="-454.9" font-family="Courier New" font-size="14.00">unallocated (12)</text>
<polyline fill="none" stroke="black" points="993.14,-446.7 993.14,-471.5 "/>
<text text-anchor="middle" x="1099.95" y="-454.9" font-family="Courier New" font-size="14.00">address: admin (20)</text>
<polyline fill="none" stroke="black" points="805.71,-446.7 1207.38,-446.7 "/>
<text text-anchor="middle" x="1006.23" y="-430.1" font-family="Courier New" font-size="14.00">uint256: amount (32)</text>
</g>
<!-- 6&#45;&gt;1 -->
<g id="edge1" class="edge">
<title>6:16&#45;&gt;1</title>
<path fill="none" stroke="black" d="M652.05,-333.5C690.64,-333.5 660.46,-385.56 688.1,-412.5 700.98,-425.06 715.36,-436.4 730.64,-446.63"/>
<polygon fill="black" stroke="black" points="728.92,-449.69 739.21,-452.2 732.73,-443.82 728.92,-449.69"/>
</g>
<!-- 2 -->
<g id="node3" class="node">
<title>2</title>
<polygon fill="#f2f2f2" stroke="black" points="814.12,-254.1 814.12,-402.9 1132.57,-402.9 1132.57,-254.1 814.12,-254.1"/>
<text text-anchor="middle" x="973.34" y="-386.3" font-family="Courier New" font-size="14.00">address[5]: administrators &lt;&lt;Array&gt;&gt;</text>
<polyline fill="none" stroke="black" points="814.12,-378.1 1132.57,-378.1 "/>
<text text-anchor="middle" x="838.92" y="-361.5" font-family="Courier New" font-size="14.00">slot</text>
<polyline fill="none" stroke="black" points="814.12,-353.3 863.72,-353.3 "/>
<text text-anchor="middle" x="838.92" y="-336.7" font-family="Courier New" font-size="14.00">8</text>
<polyline fill="none" stroke="black" points="814.12,-328.5 863.72,-328.5 "/>
<text text-anchor="middle" x="838.92" y="-311.9" font-family="Courier New" font-size="14.00">9</text>
<polyline fill="none" stroke="black" points="814.12,-303.7 863.72,-303.7 "/>
<text text-anchor="middle" x="838.92" y="-287.1" font-family="Courier New" font-size="14.00">11</text>
<polyline fill="none" stroke="black" points="814.12,-278.9 863.72,-278.9 "/>
<text text-anchor="middle" x="838.92" y="-262.3" font-family="Courier New" font-size="14.00">12</text>
<polyline fill="none" stroke="black" points="863.72,-254.1 863.72,-378.1 "/>
<text text-anchor="middle" x="997.84" y="-361.5" font-family="Courier New" font-size="14.00">type: variable (bytes)</text>
<polyline fill="none" stroke="black" points="863.72,-353.3 1131.96,-353.3 "/>
<text text-anchor="middle" x="938.93" y="-336.7" font-family="Courier New" font-size="14.00">unallocated (12)</text>
<polyline fill="none" stroke="black" points="1014.14,-328.5 1014.14,-353.3 "/>
<text text-anchor="middle" x="1073.05" y="-336.7" font-family="Courier New" font-size="14.00">address (20)</text>
<polyline fill="none" stroke="black" points="863.72,-328.5 1131.96,-328.5 "/>
<text text-anchor="middle" x="938.93" y="-311.9" font-family="Courier New" font-size="14.00">unallocated (12)</text>
<polyline fill="none" stroke="black" points="1014.14,-303.7 1014.14,-328.5 "/>
<text text-anchor="middle" x="1073.05" y="-311.9" font-family="Courier New" font-size="14.00">address (20)</text>
<polyline fill="none" stroke="black" points="863.72,-303.7 1131.96,-303.7 "/>
<text text-anchor="middle" x="938.93" y="-287.1" font-family="Courier New" font-size="14.00">unallocated (12)</text>
<polyline fill="none" stroke="black" points="1014.14,-278.9 1014.14,-303.7 "/>
<text text-anchor="middle" x="1073.05" y="-287.1" font-family="Courier New" font-size="14.00">address (20)</text>
<polyline fill="none" stroke="black" points="863.72,-278.9 1131.96,-278.9 "/>
<text text-anchor="middle" x="938.93" y="-262.3" font-family="Courier New" font-size="14.00">unallocated (12)</text>
<polyline fill="none" stroke="black" points="1014.14,-254.1 1014.14,-278.9 "/>
<text text-anchor="middle" x="1073.05" y="-262.3" font-family="Courier New" font-size="14.00">address (20)</text>
</g>
<!-- 6&#45;&gt;2 -->
<g id="edge2" class="edge">
<title>6:22&#45;&gt;2</title>
<path fill="none" stroke="black" d="M652.05,-283.5C701.69,-283.5 755.25,-288.87 804.09,-295.89"/>
<polygon fill="black" stroke="black" points="803.71,-299.38 814.12,-297.37 804.73,-292.45 803.71,-299.38"/>
</g>
<!-- 4 -->
<g id="node5" class="node">
<title>4</title>
<polygon fill="#f2f2f2" stroke="black" points="688.1,-143.9 688.1,-235.1 1258.59,-235.1 1258.59,-143.9 688.1,-143.9"/>
<text text-anchor="middle" x="973.34" y="-218.5" font-family="Courier New" font-size="14.00">History[]: paymentHistory &lt;&lt;Array&gt;&gt;</text>
<text text-anchor="middle" x="973.34" y="-201.7" font-family="Courier New" font-size="14.00">0xbb7b4a454dc3493923482f07822329ed19e8244eff582cc204f8554c3620c3fd</text>
<polyline fill="none" stroke="black" points="688.1,-193.5 1258.59,-193.5 "/>
<text text-anchor="middle" x="796.8" y="-176.9" font-family="Courier New" font-size="14.00">offset</text>
<polyline fill="none" stroke="black" points="688.1,-168.7 905.5,-168.7 "/>
<text text-anchor="middle" x="796.8" y="-152.1" font-family="Courier New" font-size="14.00">0&#45;2</text>
<polyline fill="none" stroke="black" points="905.5,-143.9 905.5,-193.5 "/>
<text text-anchor="middle" x="1081.92" y="-176.9" font-family="Courier New" font-size="14.00">type: variable (bytes)</text>
<polyline fill="none" stroke="black" points="905.5,-168.7 1258.33,-168.7 "/>
<text text-anchor="middle" x="1081.91" y="-152.1" font-family="Courier New" font-size="14.00">History (96)</text>
</g>
<!-- 6&#45;&gt;4 -->
<g id="edge3" class="edge">
<title>6:28&#45;&gt;4</title>
<path fill="none" stroke="black" d="M652.1,-233.5C660.57,-233.5 669.15,-233.35 677.81,-233.06"/>
<polygon fill="black" stroke="black" points="678.14,-236.55 688,-232.66 677.87,-229.55 678.14,-236.55"/>
</g>
<!-- 5 -->
<g id="node6" class="node">
<title>5</title>
<polygon fill="#f2f2f2" stroke="black" points="781.31,-0.5 781.31,-124.5 1165.37,-124.5 1165.37,-0.5 781.31,-0.5"/>
<text text-anchor="middle" x="973.34" y="-107.9" font-family="Courier New" font-size="14.00">ImportantStruct &lt;&lt;Struct&gt;&gt;</text>
<polyline fill="none" stroke="black" points="781.31,-99.7 1165.37,-99.7 "/>
<text text-anchor="middle" x="814.52" y="-83.1" font-family="Courier New" font-size="14.00">offset</text>
<polyline fill="none" stroke="black" points="781.31,-74.9 847.72,-74.9 "/>
<text text-anchor="middle" x="814.52" y="-58.3" font-family="Courier New" font-size="14.00">0</text>
<polyline fill="none" stroke="black" points="781.31,-50.1 847.72,-50.1 "/>
<text text-anchor="middle" x="814.52" y="-33.5" font-family="Courier New" font-size="14.00">1</text>
<polyline fill="none" stroke="black" points="781.31,-25.3 847.72,-25.3 "/>
<text text-anchor="middle" x="814.52" y="-8.7" font-family="Courier New" font-size="14.00">2</text>
<polyline fill="none" stroke="black" points="847.72,-0.5 847.72,-99.7 "/>
<text text-anchor="middle" x="1006.54" y="-83.1" font-family="Courier New" font-size="14.00">type: variable (bytes)</text>
<polyline fill="none" stroke="black" points="847.72,-74.9 1165.37,-74.9 "/>
<text text-anchor="middle" x="922.93" y="-58.3" font-family="Courier New" font-size="14.00">unallocated (30)</text>
<polyline fill="none" stroke="black" points="998.14,-50.1 998.14,-74.9 "/>
<text text-anchor="middle" x="1081.76" y="-58.3" font-family="Courier New" font-size="14.00">uint16: valueA (2)</text>
<polyline fill="none" stroke="black" points="847.72,-50.1 1165.37,-50.1 "/>
<text text-anchor="middle" x="1006.14" y="-33.5" font-family="Courier New" font-size="14.00">bytes32: bigValue (32)</text>
<polyline fill="none" stroke="black" points="847.72,-25.3 1165.37,-25.3 "/>
<text text-anchor="middle" x="922.93" y="-8.7" font-family="Courier New" font-size="14.00">unallocated (30)</text>
<polyline fill="none" stroke="black" points="998.14,-0.5 998.14,-25.3 "/>
<text text-anchor="middle" x="1081.76" y="-8.7" font-family="Courier New" font-size="14.00">uint16: valueB (2)</text>
</g>
<!-- 6&#45;&gt;5 -->
<g id="edge4" class="edge">
<title>6:34&#45;&gt;5</title>
<path fill="none" stroke="black" d="M652.1,-159.5C671.58,-159.5 670.37,-142.58 688.1,-134.5 714.32,-122.55 742.84,-112.37 771.36,-103.75"/>
<polygon fill="black" stroke="black" points="772.43,-107.08 781.03,-100.89 770.45,-100.37 772.43,-107.08"/>
</g>
<!-- 3 -->
<g id="node4" class="node">
<title>3</title>
<polygon fill="#f2f2f2" stroke="black" points="1294.59,-86.1 1294.59,-226.9 1865.08,-226.9 1865.08,-86.1 1294.59,-86.1"/>
<text text-anchor="middle" x="1579.83" y="-210.3" font-family="Courier New" font-size="14.00">History &lt;&lt;Struct&gt;&gt;</text>
<text text-anchor="middle" x="1579.83" y="-193.5" font-family="Courier New" font-size="14.00">0xbb7b4a454dc3493923482f07822329ed19e8244eff582cc204f8554c3620c3fd</text>
<polyline fill="none" stroke="black" points="1294.59,-185.3 1865.08,-185.3 "/>
<text text-anchor="middle" x="1363.79" y="-168.7" font-family="Courier New" font-size="14.00">offset</text>
<polyline fill="none" stroke="black" points="1294.59,-160.5 1432.99,-160.5 "/>
<text text-anchor="middle" x="1363.79" y="-143.9" font-family="Courier New" font-size="14.00">0</text>
<polyline fill="none" stroke="black" points="1294.59,-135.7 1432.99,-135.7 "/>
<text text-anchor="middle" x="1363.79" y="-119.1" font-family="Courier New" font-size="14.00">1</text>
<polyline fill="none" stroke="black" points="1294.59,-110.9 1432.99,-110.9 "/>
<text text-anchor="middle" x="1363.79" y="-94.3" font-family="Courier New" font-size="14.00">2</text>
<polyline fill="none" stroke="black" points="1432.99,-86.1 1432.99,-185.3 "/>
<text text-anchor="middle" x="1648.82" y="-168.7" font-family="Courier New" font-size="14.00">type: variable (bytes)</text>
<polyline fill="none" stroke="black" points="1432.99,-160.5 1864.65,-160.5 "/>
<text text-anchor="middle" x="1648.81" y="-143.9" font-family="Courier New" font-size="14.00">uint256: lastUpdate (32)</text>
<polyline fill="none" stroke="black" points="1432.99,-135.7 1864.65,-135.7 "/>
<text text-anchor="middle" x="1526.21" y="-119.1" font-family="Courier New" font-size="14.00">unallocated (12)</text>
<polyline fill="none" stroke="black" points="1619.42,-110.9 1619.42,-135.7 "/>
<text text-anchor="middle" x="1742.03" y="-119.1" font-family="Courier New" font-size="14.00">address: updatedBy (20)</text>
<polyline fill="none" stroke="black" points="1432.99,-110.9 1864.65,-110.9 "/>
<text text-anchor="middle" x="1648.51" y="-94.3" font-family="Courier New" font-size="14.00">uint256: blockNumber (32)</text>
</g>
<!-- 4&#45;&gt;3 -->
<g id="edge5" class="edge">
<title>4:27&#45;&gt;3</title>
<path fill="none" stroke="black" d="M1258.59,-156.5C1266.98,-156.5 1275.49,-156.5 1284.09,-156.5"/>
<polygon fill="black" stroke="black" points="1284.21,-160 1294.21,-156.5 1284.21,-153 1284.21,-160"/>
</g>
</g>
</svg>
